<svg xmlns="http://www.w3.org/2000/svg" width="64" height="64">
  <style>
    path {
      fill: black;
    }
    @media(prefers-color-scheme: dark) {
      path {
        fill: white;
      }
    }
  </style>
<path d="M0 0 C1.10794922 -0.01260864 2.21589844 -0.02521729 3.35742188 -0.03820801 C4.54916016 -0.03011108 5.74089844 -0.02201416 6.96875 -0.01367188 C8.19658203 -0.01749878 9.42441406 -0.02132568 10.68945312 -0.02526855 C13.28516459 -0.02799029 15.88090336 -0.02061099 18.4765625 -0.00390625 C22.45374599 0.01749738 26.42912282 -0.0037015 30.40625 -0.02929688 C32.92708733 -0.02665365 35.44792353 -0.02152878 37.96875 -0.01367188 C39.16048828 -0.0217688 40.35222656 -0.02986572 41.58007812 -0.03820801 C43.24200195 -0.01929504 43.24200195 -0.01929504 44.9375 0 C45.91138672 0.00318237 46.88527344 0.00636475 47.88867188 0.00964355 C51.25050157 0.67147992 52.43025883 1.79791784 54.46875 4.51757812 C54.97668457 6.68005371 54.97668457 6.68005371 54.98632812 9.0390625 C54.99893677 9.92678345 55.01154541 10.81450439 55.02453613 11.72912598 C55.01643921 12.68025269 55.00834229 13.63137939 55 14.61132812 C55.00574036 16.08684143 55.00574036 16.08684143 55.01159668 17.59216309 C55.01431627 19.67001368 55.00695182 21.74789847 54.99023438 23.82568359 C54.96882584 27.00631024 54.99003488 30.184678 55.015625 33.36523438 C55.01298173 35.38477061 55.00785678 37.40430544 55 39.42382812 C55.00809692 40.37495483 55.01619385 41.32608154 55.02453613 42.30603027 C55.01192749 43.19375122 54.99931885 44.08147217 54.98632812 44.99609375 C54.98314575 45.77456665 54.97996338 46.55303955 54.97668457 47.35510254 C54.25174589 50.44144927 52.97625668 51.62097105 50.46875 53.51757812 C47.88867188 54.0255127 47.88867188 54.0255127 44.9375 54.03515625 C43.82955078 54.04776489 42.72160156 54.06037354 41.58007812 54.07336426 C40.38833984 54.06526733 39.19660156 54.05717041 37.96875 54.04882812 C36.12700195 54.05456848 36.12700195 54.05456848 34.24804688 54.0604248 C31.65233541 54.06314654 29.05659664 54.05576724 26.4609375 54.0390625 C22.48375401 54.01765887 18.50837718 54.03885775 14.53125 54.06445312 C12.01041267 54.0618099 9.48957647 54.05668503 6.96875 54.04882812 C5.77701172 54.05692505 4.58527344 54.06502197 3.35742188 54.07336426 C1.69549805 54.05445129 1.69549805 54.05445129 0 54.03515625 C-0.97388672 54.03197388 -1.94777344 54.0287915 -2.95117188 54.0255127 C-6.31300157 53.36367633 -7.49275883 52.23723841 -9.53125 49.51757812 C-10.03918457 47.35510254 -10.03918457 47.35510254 -10.04882812 44.99609375 C-10.06143677 44.1083728 -10.07404541 43.22065186 -10.08703613 42.30603027 C-10.07893921 41.35490356 -10.07084229 40.40377686 -10.0625 39.42382812 C-10.0663269 38.44015259 -10.07015381 37.45647705 -10.07409668 36.44299316 C-10.07681627 34.36514257 -10.06945182 32.28725778 -10.05273438 30.20947266 C-10.03132584 27.02884601 -10.05253488 23.85047825 -10.078125 20.66992188 C-10.07548173 18.65038564 -10.07035678 16.63085081 -10.0625 14.61132812 C-10.07059692 13.66020142 -10.07869385 12.70907471 -10.08703613 11.72912598 C-10.07442749 10.84140503 -10.06181885 9.95368408 -10.04882812 9.0390625 C-10.04564575 8.2605896 -10.04246338 7.4821167 -10.03918457 6.68005371 C-8.76787564 1.26759573 -5.10343745 0.01667652 0 0 Z M-5.53125 6.51757812 C-5.73139153 9.57936585 -5.81096072 12.54877105 -5.796875 15.61132812 C-5.79878845 16.51379272 -5.8007019 17.41625732 -5.80267334 18.34606934 C-5.80403559 20.25594359 -5.80033638 22.16582708 -5.79199219 24.07568359 C-5.78129321 27.00574462 -5.79188611 29.9351925 -5.8046875 32.86523438 C-5.80336591 34.71810032 -5.80080353 36.57096588 -5.796875 38.42382812 C-5.80092346 39.3040564 -5.80497192 40.18428467 -5.80914307 41.09118652 C-6.00084673 45.78723962 -6.00084673 45.78723962 -3.53125 49.51757812 C-0.30233477 50.55661806 2.26248779 50.66003937 5.46875 49.51757812 C7.71395484 46.66772406 9.26797835 43.73377163 10.91796875 40.50585938 C14.21939047 34.14417773 19.78826557 29.81685055 26.51171875 27.44335938 C31.24502123 26.15523739 36.02708111 26.06118871 40.90625 25.89257812 C42.28973633 25.83457031 42.28973633 25.83457031 43.70117188 25.77539062 C45.95684143 25.68189137 48.21251916 25.59613903 50.46875 25.51757812 C50.52666844 22.39265561 50.56231746 19.26787047 50.59375 16.14257812 C50.61050781 15.253125 50.62726562 14.36367188 50.64453125 13.44726562 C50.65097656 12.59648437 50.65742187 11.74570312 50.6640625 10.86914062 C50.67453613 10.08361816 50.68500977 9.2980957 50.69580078 8.48876953 C50.64865127 6.28311312 50.64865127 6.28311312 48.46875 4.51757812 C46.17864949 4.21138519 46.17864949 4.21138519 43.5 4.25878906 C42.46552734 4.25248474 41.43105469 4.24618042 40.36523438 4.23968506 C39.24439453 4.24373352 38.12355469 4.24778198 36.96875 4.25195312 C35.82212891 4.25003967 34.67550781 4.24812622 33.49414062 4.24615479 C31.06640402 4.24479191 28.63866016 4.24849545 26.2109375 4.25683594 C22.48420927 4.26753375 18.75796314 4.25694381 15.03125 4.24414062 C12.67708226 4.2454622 10.32291483 4.24802455 7.96875 4.25195312 C6.28749023 4.24588043 6.28749023 4.24588043 4.57226562 4.23968506 C3.53779297 4.24598938 2.50332031 4.2522937 1.4375 4.25878906 C0.06754883 4.26117584 0.06754883 4.26117584 -1.33007812 4.26361084 C-3.73841627 4.31047795 -3.73841627 4.31047795 -5.53125 6.51757812 Z " transform="translate(9.53125,5.482421875)"/>
<path d="M0 0 C2.69990662 1.79993774 4.5418865 3.083773 6 6 C6.43023798 9.87214182 6.31669086 11.52496371 4.125 14.8125 C1.61855093 17.39266816 0.74538327 17.91717964 -2.8125 18.3125 C-6.7307645 17.92835642 -8.21293267 16.70743683 -11 14 C-12.42662219 11.14675563 -12.31033868 9.16545451 -12 6 C-8.54235344 0.81353016 -6.24330406 -0.61208863 0 0 Z " transform="translate(21,15)"/>
</svg>
